<svg width="140" height="32" viewBox="0 0 140 32" fill="none" xmlns="http://www.w3.org/2000/svg">
<g clip-path="url(#clip0_2565_1111)">
<path d="M50.1868 7.252L52.2553 3.00781H55.7393L52.203 9.33806L55.8338 15.7744H52.3161L50.1885 11.4514L48.061 15.7744H44.5517L48.174 9.33749L44.6478 3.00838H48.1223L50.1908 7.252H50.1868ZM61.2581 11.2589H59.6069V15.7744H56.5588V3.00838H61.5359C63.0353 3.00838 64.2084 3.34328 65.0537 4.01423C65.8984 4.68574 66.3213 5.63425 66.3213 6.86147C66.3213 7.74982 66.1431 8.4849 65.7876 9.06843C65.4316 9.65196 64.8737 10.1254 64.1156 10.4864L66.7566 15.6416V15.7722H63.4914L61.2581 11.2572V11.2589ZM59.6069 8.89246H61.5359C62.1146 8.89246 62.5516 8.7392 62.8424 8.43041C63.1354 8.12389 63.2822 7.69362 63.2822 7.14359C63.2822 6.59355 63.1337 6.16158 62.839 5.84768C62.5443 5.53321 62.109 5.37825 61.5359 5.37825H59.6069V8.89473V8.89246ZM70.8559 11.444V15.7761H67.8072V3.00781H72.8541C73.8214 3.00781 74.6774 3.18775 75.4203 3.54706C76.1638 3.90581 76.7397 4.41838 77.1497 5.08081C77.5591 5.74267 77.7615 6.49648 77.7615 7.33828C77.7615 8.58424 77.3201 9.5793 76.436 10.324C75.5519 11.0676 74.3416 11.4423 72.8001 11.4423H70.8542L70.8559 11.444ZM70.8559 9.06673H72.8541C73.4452 9.06673 73.8957 8.91687 74.2044 8.61943C74.5148 8.32199 74.6701 7.90138 74.6701 7.35702C74.6701 6.76043 74.5103 6.28533 74.1915 5.92772C73.8726 5.57011 73.4395 5.38903 72.889 5.38336H70.8559V9.06673ZM82.259 13.408H87.5669V15.7761H79.2103V3.00781H82.259V13.408ZM100.415 10.3575H95.6192V13.408H101.282V15.7761H92.5682V3.00781H101.299V5.38336H95.617V8.07507H100.414V10.3553L100.415 10.3575ZM107.791 12.3028L110.309 3.00781H113.716L109.459 15.7739H106.123L101.901 3.00781H105.28L107.791 12.3028ZM118.551 3.00781L121.374 11.889L124.189 3.00781H128.203V15.7739H125.145V12.7927L125.44 6.69062L122.382 15.7744H120.365L117.298 6.68153L117.593 12.7927V15.7744H114.544V3.00838L118.551 3.00781ZM21.5655 16.8666C23.9135 16.8666 26.1912 17.7044 27.9262 19.3471L37.646 28.5371H32.9849L25.6148 21.5705C24.5305 20.5488 23.0851 20.0027 21.5672 20.0027C20.0493 20.0027 18.604 20.5488 17.5197 21.5705L10.1495 28.5365H5.48896L15.2088 19.3466C16.9438 17.7061 19.2192 16.8666 21.5695 16.8666H21.5655ZM21.5655 14.68C19.2175 14.68 16.9398 13.8422 15.2049 12.1995L5.48727 3.00781H10.1484L17.518 9.9738C18.6023 10.9955 20.0476 11.541 21.5655 11.541C23.0834 11.541 24.5293 10.995 25.6131 9.9738L32.9832 3.00781H37.6443L27.9239 12.1978C26.1895 13.8382 23.9141 14.6783 21.5633 14.6783L21.5655 14.68ZM13.4356 15.7744L3.28157 24.4536C2.52346 25.1455 1.65625 24.818 1.65625 23.7968V7.74982C1.65625 6.72808 2.52346 6.40112 3.28157 7.09307L13.4356 15.7722V15.7744ZM49.7403 26.438C49.7403 26.0804 49.616 25.8057 49.3674 25.6132C49.1194 25.4202 48.6706 25.2261 48.0239 25.0274C47.3754 24.831 46.862 24.6125 46.4784 24.3712C45.7462 23.9069 45.3795 23.3013 45.3795 22.5548C45.3795 21.9003 45.6427 21.3628 46.1708 20.9388C46.6994 20.5159 47.3844 20.303 48.228 20.303C48.7876 20.303 49.2859 20.4075 49.7234 20.6152C50.161 20.823 50.5052 21.1204 50.7554 21.5036C51.0057 21.8873 51.1322 22.3136 51.1322 22.7807H49.7403C49.7403 22.3584 49.6087 22.0258 49.3455 21.7862C49.0823 21.5467 48.7061 21.4269 48.2168 21.4269C47.7612 21.4269 47.4069 21.5263 47.155 21.7221C46.903 21.9191 46.7771 22.1938 46.7771 22.5474C46.7771 22.8449 46.912 23.0918 47.1848 23.2916C47.457 23.4903 47.9052 23.6844 48.5317 23.8717C49.1582 24.059 49.6604 24.2719 50.0389 24.5132C50.4163 24.7527 50.6947 25.0274 50.8724 25.3379C51.0501 25.6484 51.1373 26.0117 51.1373 26.4266C51.1373 27.1021 50.882 27.6408 50.3668 28.0387C49.8533 28.4378 49.1565 28.6376 48.2781 28.6376C47.696 28.6376 47.1623 28.5297 46.6753 28.3123C46.1877 28.0949 45.8075 27.7941 45.537 27.4126C45.2665 27.0312 45.1309 26.5839 45.1309 26.0753H46.5285C46.5285 26.5351 46.6786 26.8927 46.9806 27.1453C47.2826 27.3973 47.7146 27.525 48.2781 27.525C48.7634 27.525 49.1284 27.4257 49.3731 27.2276C49.6177 27.0289 49.7403 26.7655 49.7403 26.4397V26.438ZM53.7226 28.5275H52.3307V20.4148H53.7226V28.5275ZM55.3254 28.5275V20.4148H57.6998C58.4096 20.4148 59.04 20.5738 59.5901 20.8939C60.1387 21.2114 60.5833 21.684 60.8689 22.2534C61.1709 22.8409 61.3211 23.5124 61.3211 24.2702V24.6761C61.3211 25.4446 61.1693 26.1201 60.865 26.7037C60.5748 27.2731 60.1234 27.7426 59.5681 28.0523C59.0063 28.3685 58.3635 28.5258 57.6385 28.5258H55.326L55.3254 28.5275ZM56.723 21.5524V27.4013H57.6329C58.3652 27.4013 58.9264 27.1691 59.3195 26.7071C59.7104 26.2456 59.9106 25.5814 59.9179 24.7152V24.2645C59.9179 23.3836 59.729 22.7121 59.3493 22.2483C58.9692 21.784 58.4208 21.5524 57.6982 21.5524H56.7213H56.723ZM67.296 24.906H63.9953V27.4013H67.8539V28.5275H62.5983V20.4148H67.8151V21.5524H63.9953V23.7911H67.296V24.906ZM75.0092 25.8863C74.9276 26.7525 74.6127 27.4274 74.0599 27.9121C73.5082 28.3963 72.7742 28.6393 71.8587 28.6393C71.217 28.6393 70.654 28.486 70.1664 28.1795C69.6788 27.873 69.3031 27.437 69.0377 26.8739C68.7728 26.3091 68.6356 25.6541 68.6249 24.9077V24.1504C68.6249 23.3853 68.7582 22.7121 69.027 22.1285C69.2953 21.545 69.6811 21.0954 70.1833 20.7798C70.6855 20.4637 71.2659 20.3064 71.9256 20.3064C72.8125 20.3064 73.5267 20.5494 74.0677 21.0341C74.6088 21.5183 74.9237 22.2052 75.0109 23.0935H73.6189C73.5526 22.51 73.3839 22.0888 73.1128 21.8311C72.8428 21.5728 72.4458 21.444 71.9233 21.444C71.3159 21.444 70.8503 21.6682 70.5247 22.1155C70.1979 22.5622 70.0314 23.2207 70.0241 24.0869V24.8072C70.0241 25.6842 70.1793 26.354 70.4909 26.8138C70.8025 27.2741 71.258 27.5063 71.857 27.5063C72.4053 27.5063 72.817 27.3808 73.0931 27.1316C73.3687 26.883 73.543 26.4698 73.6173 25.8897H75.0092V25.8863ZM82.5256 28.5275H81.1342V24.9287H77.5405V28.5275H76.143V20.4148H77.5405V23.7911H81.1342V20.4148H82.5256V28.5275ZM88.6596 26.6384H85.5467L84.8938 28.5275H83.4428L86.4786 20.4148H87.7316L90.7725 28.5275H89.3159L88.6596 26.6384ZM85.9399 25.5008H88.2693L87.1035 22.1359L85.9399 25.5008ZM93.0463 28.5275H91.6549V20.4148H93.0463V28.5275ZM101.025 28.5275H99.6274L96.0449 22.7717V28.5275H94.6474V20.4148H96.0449L99.6386 26.1933V20.4148H101.025V28.5275Z" fill="white"/>
</g>
<g clip-path="url(#clip1_2565_1111)">
<path d="M59.6114 8.03901L61.6991 3.79492H65.2155L61.6463 10.125L65.3109 16.5612H61.7604L59.6131 12.2383L57.4658 16.5612H53.9239L57.5799 10.1244L54.021 3.79549H57.5277L59.6154 8.03901H59.6114ZM70.7856 12.0458H69.119V16.5612H66.0426V3.79549H71.066C72.5793 3.79549 73.7633 4.13038 74.6164 4.80131C75.469 5.4728 75.8959 6.4213 75.8959 7.64849C75.8959 8.53681 75.7159 9.27188 75.3572 9.85539C74.9979 10.4389 74.4348 10.9123 73.6697 11.2733L76.3352 16.4284V16.559H73.0396L70.7856 12.0441V12.0458ZM69.119 9.67943H71.066C71.6501 9.67943 72.0911 9.52617 72.3846 9.21739C72.6803 8.91087 72.8284 8.48062 72.8284 7.9306C72.8284 7.38057 72.6786 6.94861 72.3812 6.63472C72.0837 6.32026 71.6444 6.1653 71.066 6.1653H69.119V9.6817V9.67943ZM80.4726 12.2309V16.5629H77.3955V3.79492H82.4893C83.4656 3.79492 84.3295 3.97486 85.0794 4.33416C85.8298 4.6929 86.411 5.20546 86.8248 5.86787C87.238 6.52971 87.4424 7.28351 87.4424 8.12529C87.4424 9.37121 86.9968 10.3662 86.1045 11.111C85.2122 11.8545 83.9907 12.2292 82.4348 12.2292H80.4709L80.4726 12.2309ZM80.4726 9.85369H82.4893C83.0859 9.85369 83.5406 9.70384 83.8522 9.4064C84.1655 9.10897 84.3222 8.68837 84.3222 8.14402C84.3222 7.54745 84.161 7.07235 83.8391 6.71475C83.5173 6.35715 83.0802 6.17608 82.5245 6.17041H80.4726V9.85369ZM91.9816 14.1948H97.3388V16.5629H88.9046V3.79492H91.9816V14.1948ZM110.307 11.1445H105.466V14.1948H111.181V16.5629H102.387V3.79492H111.199V6.17041H105.464V8.86206H110.305V11.1422L110.307 11.1445ZM117.751 13.0897L120.293 3.79492H123.731L119.435 16.5607H116.067L111.806 3.79492H115.217L117.751 13.0897ZM128.611 3.79492L131.46 12.6759L134.301 3.79492H138.352V16.5607H135.267V13.5795L135.563 7.47763L132.477 16.5612H130.442L127.347 7.46855L127.644 13.5795V16.5612H124.567V3.79549L128.611 3.79492ZM30.7242 17.6533C33.094 17.6533 35.3928 18.4911 37.1439 20.1338L46.9541 29.3236H42.2497L34.811 22.3572C33.7167 21.3355 32.2579 20.7894 30.7259 20.7894C29.1939 20.7894 27.7351 21.3355 26.6407 22.3572L19.2021 29.323H14.4982L24.3084 20.1333C26.0595 18.4929 28.3561 17.6533 30.7281 17.6533H30.7242ZM30.7242 15.4669C28.3544 15.4669 26.0555 14.6291 24.3044 12.9864L14.4965 3.79492H19.2009L26.639 10.7607C27.7334 11.7825 29.1922 12.3279 30.7242 12.3279C32.2562 12.3279 33.7155 11.7819 34.8093 10.7607L42.248 3.79492H46.9524L37.1417 12.9847C35.3911 14.6251 33.0945 15.4652 30.7219 15.4652L30.7242 15.4669ZM22.5187 16.5612L12.2703 25.2401C11.5052 25.9321 10.6299 25.6046 10.6299 24.5834V8.53681C10.6299 7.5151 11.5052 7.18815 12.2703 7.88008L22.5187 16.559V16.5612ZM59.1607 27.2245C59.1607 26.8669 59.0353 26.5922 58.7844 26.3998C58.5341 26.2068 58.0811 26.0127 57.4284 25.814C56.7739 25.6176 56.2557 25.3991 55.8686 25.1578C55.1295 24.6935 54.7594 24.0879 54.7594 23.3415C54.7594 22.687 55.0251 22.1495 55.5581 21.7254C56.0916 21.3026 56.783 21.0897 57.6344 21.0897C58.1992 21.0897 58.7021 21.1942 59.1437 21.4019C59.5853 21.6096 59.9327 21.9071 60.1853 22.2902C60.4379 22.6739 60.5656 23.1002 60.5656 23.5674H59.1607C59.1607 23.1451 59.0279 22.8124 58.7623 22.5729C58.4966 22.3334 58.1169 22.2136 57.6231 22.2136C57.1633 22.2136 56.8057 22.3129 56.5514 22.5088C56.2971 22.7057 56.17 22.9804 56.17 23.3341C56.17 23.6315 56.3062 23.8784 56.5815 24.0782C56.8562 24.2769 57.3086 24.471 57.9409 24.6583C58.5733 24.8456 59.0801 25.0585 59.4621 25.2997C59.843 25.5393 60.124 25.814 60.3034 26.1245C60.4827 26.435 60.5707 26.7983 60.5707 27.2132C60.5707 27.8887 60.313 28.4273 59.7931 28.8252C59.2748 29.2243 58.5716 29.4241 57.6849 29.4241C57.0974 29.4241 56.5588 29.3162 56.0672 29.0988C55.5751 28.8814 55.1914 28.5806 54.9184 28.1991C54.6453 27.8177 54.5085 27.3704 54.5085 26.8618H55.9191C55.9191 27.3216 56.0706 27.6792 56.3754 27.9318C56.6802 28.1838 57.1162 28.3115 57.6849 28.3115C58.1748 28.3115 58.5432 28.2122 58.7901 28.0141C59.037 27.8154 59.1607 27.5521 59.1607 27.2262V27.2245ZM63.1801 29.3139H61.7752V21.2015H63.1801V29.3139ZM64.7978 29.3139V21.2015H67.1943C67.9106 21.2015 68.5469 21.3605 69.102 21.6806C69.6557 21.998 70.1045 22.4706 70.3928 23.04C70.6976 23.6275 70.8492 24.299 70.8492 25.0568V25.4626C70.8492 26.2312 70.6959 26.9067 70.3888 27.4902C70.096 28.0596 69.6403 28.5291 69.0799 28.8388C68.5128 29.155 67.864 29.3122 67.1324 29.3122H64.7983L64.7978 29.3139ZM66.2083 22.339V28.1878H67.1267C67.8657 28.1878 68.4322 27.9556 68.829 27.4936C69.2235 27.0321 69.4256 26.368 69.4329 25.5018V25.0511C69.4329 24.1702 69.2422 23.4987 68.8591 23.0349C68.4754 22.5706 67.9219 22.339 67.1926 22.339H66.2066H66.2083ZM76.8795 25.6925H73.5482V28.1878H77.4426V29.3139H72.1382V21.2015H77.4035V22.339H73.5482V24.5777H76.8795V25.6925ZM84.6644 26.6728C84.5821 27.539 84.2643 28.2139 83.7063 28.6986C83.1495 29.1828 82.4087 29.4258 81.4846 29.4258C80.837 29.4258 80.2688 29.2725 79.7767 28.966C79.2845 28.6595 78.9054 28.2235 78.6375 27.6605C78.3701 27.0957 78.2316 26.4407 78.2208 25.6942V24.937C78.2208 24.1719 78.3553 23.4987 78.6267 22.9152C78.8974 22.3317 79.2868 21.8821 79.7937 21.5665C80.3006 21.2503 80.8864 21.0931 81.5522 21.0931C82.4473 21.0931 83.1682 21.3361 83.7142 21.8208C84.2603 22.305 84.5782 22.9918 84.6661 23.8801H83.2613C83.1943 23.2966 83.024 22.8754 82.7504 22.6177C82.478 22.3595 82.0772 22.2306 81.5499 22.2306C80.9369 22.2306 80.4669 22.4548 80.1382 22.9021C79.8085 23.3488 79.6404 24.0073 79.6331 24.8735V25.5938C79.6331 26.4707 79.7897 27.1405 80.1042 27.6003C80.4186 28.0606 80.8784 28.2928 81.4829 28.2928C82.0364 28.2928 82.4519 28.1674 82.7306 27.9182C83.0087 27.6696 83.1846 27.2563 83.2596 26.6762H84.6644V26.6728ZM92.2507 29.3139H90.8464V25.7152H87.2193V29.3139H85.8088V21.2015H87.2193V24.5777H90.8464V21.2015H92.2507V29.3139ZM98.4417 27.4249H95.2999L94.6409 29.3139H93.1765L96.2405 21.2015H97.5051L100.574 29.3139H99.1041L98.4417 27.4249ZM95.6967 26.2874H98.0478L96.8711 22.9226L95.6967 26.2874ZM102.869 29.3139H101.465V21.2015H102.869V29.3139ZM110.922 29.3139H109.511L105.896 23.5583V29.3139H104.485V21.2015H105.896L109.523 26.9799V21.2015H110.922V29.3139Z" fill="white"/>
</g>
<defs>
<clipPath id="clip0_2565_1111">
<rect width="36.5556" height="27.814" fill="white" transform="translate(1.55566 1.61914)"/>
</clipPath>
<clipPath id="clip1_2565_1111">
<rect width="85.1429" height="27.8133" fill="white" transform="translate(53.667 2.40625)"/>
</clipPath>
</defs>
</svg>
