<svg width="140" height="32" viewBox="0 0 140 32" fill="none" xmlns="http://www.w3.org/2000/svg">
<g clip-path="url(#clip0_2565_1129)">
<path d="M21.5655 16.8666C23.9135 16.8666 26.1912 17.7044 27.9262 19.3471L37.646 28.5371H32.9849L25.6148 21.5705C24.5305 20.5488 23.0851 20.0027 21.5672 20.0027C20.0493 20.0027 18.604 20.5488 17.5197 21.5705L10.1495 28.5365H5.48896L15.2088 19.3466C16.9438 17.7061 19.2192 16.8666 21.5695 16.8666H21.5655ZM21.5655 14.68C19.2175 14.68 16.9398 13.8422 15.2049 12.1995L5.48727 3.00781H10.1484L17.518 9.9738C18.6023 10.9955 20.0476 11.541 21.5655 11.541C23.0834 11.541 24.5293 10.995 25.6131 9.9738L32.9832 3.00781H37.6443L27.9239 12.1978C26.1895 13.8382 23.9141 14.6783 21.5633 14.6783L21.5655 14.68ZM13.4356 15.7744L3.28157 24.4536C2.52346 25.1455 1.65625 24.818 1.65625 23.7968V7.74982C1.65625 6.72808 2.52346 6.40112 3.28157 7.09307L13.4356 15.7722V15.7744Z" fill="black"/>
</g>
<path d="M59.6114 8.03901L61.6991 3.79492H65.2155L61.6463 10.125L65.3108 16.5612H61.7604L59.6131 12.2383L57.4658 16.5612H53.9238L57.5799 10.1244L54.0209 3.79549H57.5276L59.6153 8.03901H59.6114ZM70.7855 12.0458H69.119V16.5612H66.0425V3.79549H71.0659C72.5792 3.79549 73.7632 4.13038 74.6164 4.80131C75.4689 5.4728 75.8958 6.4213 75.8958 7.64849C75.8958 8.53681 75.7159 9.27188 75.3571 9.85539C74.9978 10.4389 74.4347 10.9123 73.6696 11.2733L76.3351 16.4284V16.559H73.0395L70.7855 12.0441V12.0458ZM69.119 9.67943H71.0659C71.65 9.67943 72.091 9.52617 72.3845 9.21739C72.6802 8.91087 72.8284 8.48062 72.8284 7.93059C72.8284 7.38057 72.6785 6.94861 72.3811 6.63472C72.0837 6.32026 71.6443 6.1653 71.0659 6.1653H69.119V9.6817V9.67943ZM80.4725 12.2309V16.5629H77.3954V3.79492H82.4893C83.4656 3.79492 84.3295 3.97486 85.0793 4.33416C85.8297 4.6929 86.4109 5.20546 86.8247 5.86787C87.238 6.52971 87.4423 7.28351 87.4423 8.12529C87.4423 9.37121 86.9967 10.3662 86.1044 11.111C85.2121 11.8545 83.9906 12.2292 82.4348 12.2292H80.4708L80.4725 12.2309ZM80.4725 9.85369H82.4893C83.0858 9.85369 83.5405 9.70384 83.8521 9.4064C84.1654 9.10897 84.3221 8.68837 84.3221 8.14402C84.3221 7.54745 84.1609 7.07235 83.8391 6.71475C83.5172 6.35715 83.0801 6.17608 82.5244 6.17041H80.4725V9.85369ZM91.9816 14.1948H97.3387V16.5629H88.9045V3.79492H91.9816V14.1948ZM110.307 11.1445H105.466V14.1948H111.181V16.5629H102.387V3.79492H111.199V6.17041H105.464V8.86206H110.305V11.1422L110.307 11.1445ZM117.751 13.0897L120.293 3.79492H123.731L119.434 16.5607H116.067L111.806 3.79492H115.216L117.751 13.0897ZM128.611 3.79492L131.46 12.6759L134.301 3.79492H138.352V16.5607H135.266V13.5795L135.563 7.47763L132.477 16.5612H130.442L127.346 7.46855L127.644 13.5795V16.5612H124.567V3.79549L128.611 3.79492ZM59.1607 27.2245C59.1607 26.8669 59.0352 26.5922 58.7843 26.3998C58.534 26.2068 58.0811 26.0127 57.4283 25.814C56.7738 25.6176 56.2556 25.3991 55.8685 25.1578C55.1294 24.6935 54.7594 24.0879 54.7594 23.3415C54.7594 22.687 55.025 22.1495 55.558 21.7254C56.0916 21.3026 56.7829 21.0897 57.6344 21.0897C58.1991 21.0897 58.702 21.1942 59.1437 21.4019C59.5853 21.6096 59.9326 21.9071 60.1852 22.2902C60.4378 22.6739 60.5655 23.1002 60.5655 23.5674H59.1607C59.1607 23.1451 59.0279 22.8124 58.7622 22.5729C58.4966 22.3334 58.1168 22.2136 57.623 22.2136C57.1632 22.2136 56.8056 22.3129 56.5513 22.5088C56.297 22.7057 56.1699 22.9804 56.1699 23.3341C56.1699 23.6315 56.3061 23.8784 56.5814 24.0782C56.8561 24.2769 57.3085 24.471 57.9409 24.6583C58.5732 24.8456 59.0801 25.0585 59.4621 25.2997C59.843 25.5393 60.1239 25.814 60.3033 26.1245C60.4827 26.435 60.5706 26.7983 60.5706 27.2132C60.5706 27.8887 60.3129 28.4273 59.793 28.8252C59.2748 29.2243 58.5715 29.4241 57.6849 29.4241C57.0974 29.4241 56.5587 29.3162 56.0672 29.0988C55.575 28.8814 55.1913 28.5806 54.9183 28.1991C54.6453 27.8177 54.5085 27.3704 54.5085 26.8618H55.919C55.919 27.3216 56.0706 27.6792 56.3754 27.9318C56.6802 28.1838 57.1161 28.3115 57.6849 28.3115C58.1747 28.3115 58.5431 28.2122 58.79 28.0141C59.0369 27.8154 59.1607 27.5521 59.1607 27.2262V27.2245ZM63.18 29.3139H61.7751V21.2015H63.18V29.3139ZM64.7977 29.3139V21.2015H67.1942C67.9105 21.2015 68.5468 21.3605 69.102 21.6806C69.6557 21.998 70.1044 22.4706 70.3927 23.04C70.6975 23.6275 70.8491 24.299 70.8491 25.0568V25.4626C70.8491 26.2312 70.6958 26.9067 70.3888 27.4902C70.0959 28.0596 69.6403 28.5291 69.0798 28.8388C68.5128 29.155 67.864 29.3122 67.1323 29.3122H64.7983L64.7977 29.3139ZM66.2082 22.339V28.1878H67.1266C67.8657 28.1878 68.4322 27.9556 68.8289 27.4936C69.2234 27.0321 69.4255 26.368 69.4329 25.5018V25.0511C69.4329 24.1702 69.2422 23.4987 68.859 23.0349C68.4753 22.5706 67.9219 22.339 67.1925 22.339H66.2065H66.2082ZM76.8795 25.6925H73.5481V28.1878H77.4426V29.3139H72.1382V21.2015H77.4034V22.339H73.5481V24.5777H76.8795V25.6925ZM84.6644 26.6728C84.5821 27.539 84.2642 28.2139 83.7062 28.6986C83.1494 29.1828 82.4087 29.4258 81.4846 29.4258C80.8369 29.4258 80.2687 29.2725 79.7766 28.966C79.2845 28.6595 78.9053 28.2235 78.6374 27.6605C78.37 27.0957 78.2316 26.4407 78.2208 25.6942V24.937C78.2208 24.1719 78.3553 23.4987 78.6266 22.9152C78.8974 22.3317 79.2868 21.8821 79.7936 21.5665C80.3005 21.2503 80.8863 21.0931 81.5521 21.0931C82.4473 21.0931 83.1681 21.3361 83.7142 21.8208C84.2602 22.305 84.5781 22.9918 84.6661 23.8801H83.2612C83.1942 23.2966 83.024 22.8754 82.7504 22.6177C82.4779 22.3595 82.0772 22.2306 81.5498 22.2306C80.9368 22.2306 80.4668 22.4548 80.1382 22.9021C79.8084 23.3488 79.6404 24.0073 79.633 24.8735V25.5938C79.633 26.4707 79.7897 27.1405 80.1041 27.6003C80.4186 28.0606 80.8784 28.2928 81.4829 28.2928C82.0363 28.2928 82.4518 28.1674 82.7305 27.9182C83.0086 27.6696 83.1846 27.2563 83.2595 26.6762H84.6644V26.6728ZM92.2506 29.3139H90.8463V25.7152H87.2192V29.3139H85.8087V21.2015H87.2192V24.5777H90.8463V21.2015H92.2506V29.3139ZM98.4416 27.4249H95.2999L94.6409 29.3139H93.1764L96.2404 21.2015H97.5051L100.574 29.3139H99.104L98.4416 27.4249ZM95.6966 26.2874H98.0477L96.871 22.9226L95.6966 26.2874ZM102.869 29.3139H101.465V21.2015H102.869V29.3139ZM110.922 29.3139H109.511L105.896 23.5583V29.3139H104.485V21.2015H105.896L109.523 26.9799V21.2015H110.922V29.3139Z" fill="black"/>
<defs>
<clipPath id="clip0_2565_1129">
<rect width="127" height="27" fill="white" transform="translate(2 2)"/>
</clipPath>
</defs>
</svg>
