<svg width="60" height="60" viewBox="0 0 60 60" fill="none" xmlns="http://www.w3.org/2000/svg">
  <rect width="60" height="60" rx="30" fill="black" />
  <path
    d="M31.8617 31.0543C34.1452 31.0543 36.3602 31.8617 38.0471 33.4441L47.5 42.2986H42.9673L35.7997 35.587C34.7453 34.603 33.3396 34.0767 31.8635 34.0767C30.3875 34.0767 28.9817 34.603 27.9274 35.587L20.7598 42.2986H16.2271L25.68 33.4441C27.3669 31.8635 29.5801 31.0543 31.8653 31.0543H31.8617ZM31.8617 28.9475C29.5783 28.9475 27.3633 28.14 25.6763 26.5577L16.2253 17.7013H20.758L27.9256 24.413C28.9799 25.397 30.3857 25.9233 31.8617 25.9233C33.3378 25.9233 34.7435 25.397 35.7979 24.413L42.9655 17.7013H47.4982L38.0453 26.5559C36.3584 28.1364 34.1452 28.9457 31.8599 28.9457L31.8617 28.9475Z"
    fill="white"
  />
  <path
    d="M23.9552 30.0018L14.0806 38.3643C13.3435 39.0311 12.5 38.7157 12.5 37.7317V22.27C12.5 21.286 13.3435 20.9706 14.0806 21.6374L23.9552 30V30.0018Z"
    fill="white"
  />
</svg>
